<?xml version="1.0" standalone="no"?>
<!DOCTYPE svg PUBLIC "-//W3C//DTD SVG 20010904//EN"
 "http://www.w3.org/TR/2001/REC-SVG-20010904/DTD/svg10.dtd">
<svg version="1.0" xmlns="http://www.w3.org/2000/svg"
 width="1287.000000pt" height="259.000000pt" viewBox="0 0 1287.000000 259.000000"
 preserveAspectRatio="xMidYMid meet">
<metadata>
Created by potrace 1.16, written by Peter Selinger 2001-2019
</metadata>
<g transform="translate(0.000000,259.000000) scale(0.100000,-0.100000)"
fill="#000000" stroke="none">
<path d="M332 2443 l-244 -3 6 -28 c3 -15 8 -46 11 -69 l7 -42 66 -6 c37 -4
110 -12 162 -19 l94 -11 8 -35 c10 -42 12 -1737 2 -1826 -7 -73 9 -65 -184
-89 -69 -9 -130 -17 -136 -20 -10 -3 -40 -134 -32 -140 2 -1 73 1 158 6 198
10 698 10 905 0 88 -4 162 -7 163 -5 4 3 -24 134 -30 139 -2 2 -73 11 -158 19
-248 25 -226 18 -234 85 -9 78 -9 1789 0 1836 l7 38 105 -7 c222 -14 341 -55
426 -146 61 -65 93 -137 108 -238 20 -135 -23 -291 -108 -393 -77 -92 -232
-189 -361 -225 l-61 -17 -7 -74 c-4 -41 -4 -77 -1 -80 3 -3 61 7 128 21 466
102 728 291 834 601 23 68 27 97 28 195 1 114 1 117 -37 192 -65 132 -209 238
-384 283 -162 41 -508 67 -838 62 -88 -1 -269 -3 -403 -4z"/>
<path d="M2593 2414 c13 -77 27 -114 45 -114 41 -1 294 -38 300 -45 8 -8 10
-1901 1 -1909 -3 -3 -59 -13 -125 -21 -65 -8 -137 -17 -160 -20 l-41 -6 -12
-70 c-7 -39 -11 -71 -10 -73 2 -1 63 1 134 5 178 10 774 9 915 0 63 -5 116 -7
118 -6 1 1 -5 34 -15 73 l-17 71 -55 6 c-173 20 -263 33 -269 39 -9 10 -16
1511 -7 1731 l7 183 32 6 c17 3 90 12 162 22 l131 17 17 70 c9 38 15 71 13 73
-2 2 -70 -1 -153 -7 -152 -11 -916 -5 -983 7 l-34 7 6 -39z"/>
<path d="M4487 2414 c3 -22 8 -55 12 -74 l7 -35 104 -21 c103 -21 105 -22 148
-70 44 -49 202 -258 477 -629 81 -110 158 -214 171 -230 l23 -31 -211 -279
c-256 -340 -421 -547 -508 -638 l-65 -68 -106 -21 -106 -21 -22 -69 c-13 -38
-21 -71 -19 -72 1 -2 64 1 138 6 74 5 277 7 451 4 l315 -6 -9 69 c-11 79 5 69
-154 92 -50 7 -83 16 -83 23 0 15 151 277 258 446 91 145 242 370 247 370 2 0
72 -84 156 -187 254 -311 385 -459 569 -644 185 -186 316 -299 347 -299 10 0
60 9 111 21 l92 22 -26 34 c-98 128 -920 1287 -964 1359 -12 19 -3 33 105 165
166 201 397 471 477 554 l66 70 109 25 108 25 9 68 c5 37 7 69 5 71 -2 1 -91
-2 -198 -7 -135 -8 -257 -7 -405 0 -116 6 -212 9 -214 8 -2 -2 3 -34 10 -72
l14 -68 94 -17 c52 -9 97 -17 98 -17 14 -2 -357 -559 -408 -614 -9 -11 -74 78
-272 373 -182 270 -180 239 -13 261 l93 11 17 70 c10 38 16 70 14 72 -2 2
-105 -1 -229 -6 -218 -9 -727 -4 -802 8 l-37 6 6 -38z"/>
<path d="M8030 2383 c0 -34 4 -64 9 -67 5 -3 55 -13 112 -21 56 -9 105 -18
108 -20 15 -16 -710 -1874 -749 -1918 -4 -5 -245 -46 -277 -47 -1 0 -4 -19 -8
-42 -3 -24 -8 -55 -11 -70 l-5 -27 278 6 c153 3 361 0 463 -5 102 -6 186 -10
187 -9 1 2 -13 88 -22 123 -4 17 -15 23 -57 28 -29 3 -86 11 -127 18 l-73 11
6 49 c12 91 183 738 199 754 8 8 229 23 453 30 l211 7 31 -79 c69 -180 264
-756 257 -762 -6 -6 -203 -32 -247 -32 -35 0 -38 -2 -48 -42 -6 -24 -15 -58
-20 -77 l-9 -33 92 6 c310 20 877 14 1018 -10 l36 -6 -10 73 c-5 41 -10 75
-11 76 -1 1 -62 11 -136 23 -74 11 -140 26 -147 33 -49 50 -306 709 -549 1411
-131 379 -168 496 -157 507 4 4 53 14 108 21 l100 14 7 44 c4 25 9 56 12 70
l4 25 -514 0 -514 0 0 -62z m395 -285 c4 -13 61 -182 127 -376 66 -195 118
-356 115 -358 -10 -11 -527 9 -527 20 0 19 265 736 272 736 4 0 10 -10 13 -22z"/>
<path d="M10427 2388 c11 -97 3 -92 159 -106 188 -18 182 -16 188 -65 17 -141
12 -1855 -6 -1872 -6 -6 -130 -25 -269 -40 l-56 -6 -12 -71 c-6 -39 -10 -72
-9 -73 2 -1 50 1 108 6 128 10 806 10 945 0 55 -4 101 -7 102 -6 1 1 -3 32
-10 71 l-13 69 -45 7 c-24 4 -95 14 -157 22 -62 8 -116 17 -120 21 -4 4 -9
193 -11 421 l-3 414 59 0 c33 0 87 3 119 6 l59 6 90 -103 c367 -423 824 -889
973 -991 l44 -30 113 18 114 17 -63 71 c-84 95 -195 236 -301 381 -156 214
-515 767 -515 794 0 5 28 29 63 54 34 25 94 78 133 118 249 260 291 529 110
713 -62 63 -168 120 -273 146 -183 47 -264 52 -910 57 l-612 5 6 -54z m1010
-137 c166 -32 266 -82 347 -173 99 -110 113 -267 37 -423 -87 -176 -258 -272
-533 -300 l-68 -7 0 379 c0 208 3 415 7 461 l6 82 53 0 c29 0 97 -9 151 -19z"/>
</g>
</svg>
